<svg xmlns="http://www.w3.org/2000/svg" viewBox="0 0 40 40">
<path d="M38.1,24.2c-0.1,0.1-0.2,0.3-0.2,0.4c0-0.1,0-0.2-0.1-0.3c-0.2-0.8-0.7-1.3-1.3-1.8c-0.7-0.6-1.6-1-2.5-1.2 c-1.1-0.3-2.3-0.4-3.5-0.3c-1.2,0-2.4,0.2-3.5,0.7c-0.8,0.3-1.5,0.8-2.1,1.5c-0.5,0.6-0.7,1.2-0.8,2c-0.1,0.7,0,1.3,0.3,2 c0.3,0.7,0.7,1.2,1.3,1.6c0.7,0.6,1.6,0.9,2.5,1.1c1.1,0.3,2.3,0.4,3.4,0.3c0.1,0,0.2,0,0.3,0c0,0,0,0,0,0c0,0,0,0,0,0 c-0.7,0.4-1.4,0.7-2,1.1c-2.3,1.2-4.8,2-7.3,2.6c-1.1,0.3-2.3,0.5-3.4,0.6c-1.6,0.2-3.3,0.3-5,0.3c-1.4,0-2.7-0.2-4-0.5 c-1.7-0.4-3.2-1-4.6-1.9c-1.8-1.2-3.1-2.8-3.9-4.8c-0.5-1.2-0.8-2.5-0.9-3.8c-0.2-2.2,0.3-4.3,1.4-6.2c0.9-1.5,2.1-2.8,3.4-3.9 c1.5-1.2,3.2-2.2,4.9-3c2.1-1,4.4-1.8,6.7-2.4c1.2-0.3,2.4-0.6,3.7-0.7c1.9-0.3,3.8-0.4,5.7-0.3c1.7,0.1,3.3,0.3,4.9,0.8 c1.4,0.4,2.7,1.1,3.9,1.9c1.5,1.1,2.6,2.4,3.3,4.1c0.5,1.2,0.9,2.5,1,3.8C39.7,20.1,39.3,22.2,38.1,24.2z M11.2,23.9 c0.5-0.3,1.1-0.5,1.8-0.6c0.9-0.1,1.7-0.1,2.6,0c1,0.1,2,0.4,2.8,1.1c0.8-0.5,1.5-1,2.3-1.5c-0.1-0.1-0.2-0.2-0.3-0.3 c-0.4-0.3-0.9-0.6-1.3-0.8c-1.2-0.5-2.4-0.7-3.6-0.8c-1.2-0.1-2.3,0-3.5,0.2c-0.9,0.2-1.7,0.4-2.5,0.8c-0.8,0.4-1.4,0.9-1.8,1.7 c-0.5,0.9-0.6,1.9-0.3,2.9c0.2,0.9,0.7,1.6,1.4,2.1c0.7,0.6,1.6,0.9,2.4,1.1c1.5,0.4,3,0.5,4.6,0.3c1.1-0.1,2.2-0.4,3.3-0.8 c0.5-0.2,1-0.5,1.4-0.8c0.1,0,0.1-0.1,0.2-0.2c-0.8-0.5-1.6-1-2.3-1.4c-0.2,0.2-0.5,0.3-0.7,0.5c-0.7,0.3-1.4,0.5-2.1,0.6 c-0.8,0.1-1.5,0.1-2.3,0c-0.6-0.1-1.2-0.2-1.8-0.5c-0.5-0.2-0.9-0.6-1.1-1.1C10.1,25.6,10.2,24.5,11.2,23.9z M31,28 c-0.7,0-1.5-0.1-2.2-0.3c-0.4-0.1-0.7-0.3-1.1-0.6c-1-0.8-1-2.4,0.1-3.1c0.5-0.4,1.1-0.6,1.7-0.7c1-0.2,2.1-0.2,3.1,0 c0.5,0.1,1,0.3,1.5,0.6c1.1,0.8,1.1,2.4,0,3.2c-0.5,0.4-1.1,0.6-1.7,0.7C32,28,31.5,28,31,28C31,28,31,28,31,28z"></path>
</svg>
