<svg xmlns="http://www.w3.org/2000/svg" viewBox="0 0 40 40">
<path d="M20.4,2.7c-4.7,0-9.1,0.5-11.8,1.7c0,0-5.2,2.3-5.2,10.2c0,1.8,0,4,0,6.3c0.2,7.7,1.4,15.4,8.6,17.3 c3.3,0.9,6.1,1.1,8.4,0.9c4.1-0.2,6.5-1.5,6.5-1.5l-0.1-3c0,0-3,0.9-6.3,0.8c-3.3-0.1-6.8-0.4-7.3-4.4c0-0.4-0.1-0.7-0.1-1.1 c0,0,3.2,0.8,7.3,1c2.5,0.1,4.8-0.1,7.2-0.4c4.6-0.5,8.5-3.4,9-5.9c0.8-4.1,0.7-9.9,0.7-9.9c0-7.9-5.2-10.2-5.2-10.2 c-2.6-1.2-7.1-1.7-11.8-1.7H20.4z M15.2,8.9c1.9,0,3.4,0.7,4.4,2.2l0.9,1.6l0.9-1.6c1-1.5,2.4-2.2,4.4-2.2c1.7,0,3,0.6,4.1,1.7 c1,1.2,1.5,2.7,1.5,4.7v9.6h-3.8v-9.3c0-2-0.8-3-2.5-3c-1.8,0-2.7,1.2-2.7,3.5v5.1h-3.8v-5.1c0-2.3-0.9-3.5-2.7-3.5 c-1.6,0-2.5,1-2.5,3v9.3H9.6v-9.6c0-2,0.5-3.5,1.5-4.7C12.1,9.5,13.5,8.9,15.2,8.9z"/>
</svg>