<svg xmlns="http://www.w3.org/2000/svg" viewBox="0 0 40 40">
<path d="M31.3,36.5v-0.8l2.3,0V4.3h-2.3V3.5h3.1v33H31.3z M25.7,19.4c0-0.4,0-0.8,0-1.1c0-0.3-0.1-0.6-0.3-0.9 c-0.1-0.3-0.3-0.5-0.6-0.6c-0.3-0.2-0.6-0.2-1.1-0.2c-0.5,0-0.8,0.1-1.1,0.3c-0.3,0.2-0.5,0.4-0.7,0.7c-0.2,0.3-0.3,0.6-0.3,1 c-0.1,0.4-0.1,0.7-0.1,1.1V26h-3.2v-6.6c0-0.3,0-0.7,0-1c0-0.3-0.1-0.6-0.2-0.9c-0.1-0.3-0.3-0.5-0.6-0.7c-0.3-0.2-0.7-0.3-1.2-0.3 c-0.2,0-0.4,0-0.6,0.1c-0.3,0.1-0.5,0.2-0.7,0.4c-0.2,0.2-0.4,0.5-0.6,0.8c-0.2,0.4-0.3,0.8-0.3,1.4V26h-3.2V14.3l3.1,0v1.6h0 c0.4-0.6,0.9-1.1,1.5-1.4c0.6-0.3,1.3-0.5,2.1-0.5c0.7,0,1.4,0.1,2,0.4c0.6,0.3,1.1,0.8,1.4,1.5c0.4-0.5,0.8-1,1.4-1.4 c0.6-0.4,1.3-0.6,2.1-0.6c0.6,0,1.2,0.1,1.7,0.2c0.5,0.2,1,0.4,1.4,0.7c0.4,0.3,0.7,0.8,0.9,1.3c0.2,0.5,0.3,1.2,0.3,1.9V26h-3.2 V19.4z M5.6,3.5h3.1v0.8l-2.3,0v31.4h2.3v0.8H5.6V3.5z"/>
</svg>