<svg xmlns="http://www.w3.org/2000/svg" viewBox="0 0 40 40">
<path d="M26.8,29.7l1.6,4.6c-0.3,0.5-1,0.9-2.2,1.3s-2.3,0.6-3.4,0.6c-1.4,0-2.6-0.1-3.7-0.5s-2.1-0.8-2.8-1.4 c-0.7-0.6-1.3-1.3-1.9-2.1c-0.5-0.8-0.9-1.6-1.1-2.3c-0.2-0.8-0.3-1.5-0.3-2.3V16.9H9.7v-4.2c0.9-0.3,1.8-0.8,2.5-1.4 s1.3-1.1,1.8-1.8s0.8-1.3,1.1-2c0.3-0.7,0.5-1.4,0.7-1.9S16,4.6,16.1,4c0-0.1,0-0.1,0.1-0.2s0.1-0.1,0.1-0.1h4.8V12h6.5v4.9h-6.5V27 c0,0.4,0,0.8,0.1,1.1c0.1,0.3,0.2,0.7,0.4,1s0.5,0.6,1,0.8c0.4,0.2,1,0.3,1.6,0.3C25.2,30.2,26.1,30,26.8,29.7L26.8,29.7z"></path>
</svg>
